<?xml version="1.0" encoding="UTF-8"?>
<svg width="137px" height="123px" viewBox="0 0 137 123" version="1.1" xmlns="http://www.w3.org/2000/svg" xmlns:xlink="http://www.w3.org/1999/xlink">
    <title>shopping-basket</title>
    <g id="Page-2" stroke="none" stroke-width="1" fill="none" fill-rule="evenodd" opacity="0.89546131">
        <g id="Produits-liste-vide" transform="translate(-134.000000, -300.000000)" fill-rule="nonzero">
            <g id="Group-4" transform="translate(25.000000, 178.000000)">
                <g id="shopping-basket" transform="translate(109.000000, 122.000000)">
                    <path d="M98.8352989,42.5006023 L96.8558614,48.337038 C94.6085898,54.9638352 87.2951839,58.5670156 80.5998569,56.341868 L75.7989155,54.7446681 L42.2506999,43.5972225 C35.5553729,41.3720748 31.9190085,34.1280528 34.1636387,27.5012556 L36.1430762,21.66482 C37.5046988,17.6476282 40.7279541,14.7430103 44.5444595,13.5734216 C47.0268125,12.8099983 49.7608873,12.7801832 52.3990807,13.6573747 L90.7508791,26.4048971 C97.4438288,28.6297832 101.082571,35.8711898 98.8352989,42.5006023 Z" id="Path" fill="#77E8FB"></path>
                    <path d="M78.5,51.7650949 L75.8658341,54 L42.2645438,42.8989207 C35.5586246,40.6830283 31.9165073,33.4691369 34.1646887,26.869903 L36.1472576,21.0577432 C37.5110344,17.0572605 40.739389,14.1647239 44.5619323,13 L78.5,51.7650949 Z" id="Path" fill="#2CC2DC"></path>
                    <polygon id="Path" fill="#FBAF02" points="71.5 55.814323 49.1211441 75.0902516 45.7415589 78 4.5 30.1885806 7.88222678 27.2759285 30.2610826 8"></polygon>
                    <polygon id="Path" fill="#FFC542" points="71.5 55.750002 48.986688 75 7.5 27.249998 30.013312 8"></polygon>
                    <path d="M32.4054832,11.1463809 L6.32296608,33.2496419 C5.00386019,34.3657193 2.99313974,34.2202822 1.85535701,32.9232694 L1.26423807,32.2488015 C0.12645535,30.9517886 0.27706405,28.9747447 1.59616995,27.8560181 L3.65969774,26.1065342 L27.6759928,5.75275712 C28.9837829,4.64489196 30.9637888,4.7765536 32.1072295,6.03780325 C32.1212396,6.05157871 32.1352497,6.06535417 32.1462961,6.07886472 L32.7347208,6.75333261 C33.8722341,8.0508753 33.7245891,10.0276543 32.4054832,11.1463809 Z" id="Path" fill="#FBAF02"></path>
                    <path d="M32.5,6.03108485 L8.85887334,26.2530983 C7.57430909,27.3537915 5.62545224,27.220087 4.5,25.9698975 L28.1384748,5.74788402 C29.4259561,4.64719081 31.3748129,4.77800012 32.5,6.03108485 Z" id="Path" fill="#F6C600"></path>
                    <circle id="Oval" fill="#080040" cx="35.5" cy="40" r="12"></circle>
                    <path d="M43.7285599,38.8131169 L41.6960698,37.2239635 L42.3669712,34.4842134 C42.630958,33.4065801 41.9657841,32.319891 40.8814596,32.0575332 C39.7966145,31.7949167 38.7039591,32.4562446 38.4397119,33.5338779 L37.9872375,35.3812493 C37.2220923,35.1978059 36.3163625,35.0573125 35.3286249,35.0573125 C32.7304116,35.0573125 29.1288402,36.0260182 26.7261438,40.6413419 C26.2695039,41.518714 26.522296,42.5963473 27.323108,43.1821244 C27.5774622,43.3681553 29.8960681,45 32.9212423,45 C34.9662288,45 37.7073698,44.2491496 39.9965572,41.0066764 L41.2292766,41.9704661 C41.5997433,42.2602499 42.0399816,42.4004845 42.4773562,42.4004845 C43.0758825,42.4004845 43.6684209,42.1376093 44.0670045,41.6338512 C44.7574315,40.7616539 44.6059125,39.498766 43.7285599,38.8131169 Z M32.9212423,40.9823553 C32.4114926,40.9823553 31.9236117,40.8920566 31.4891009,40.7647587 C32.522919,39.6304623 33.7920863,39.074181 35.3286249,39.074181 C35.6824297,39.074181 36.0237381,39.1039356 36.343438,39.1515429 C35.3460678,40.3681172 34.2005629,40.9823553 32.9212423,40.9823553 Z" id="Shape" fill="#FFCD00"></path>
                    <path d="M126.589507,12.2219994 L98.3135313,0.371885059 C95.8939584,-0.64198473 93.1067312,0.488494595 92.0880612,2.89666619 L88.1570504,12.1903407 C88.1281576,12.2043233 88.1270973,12.2048509 88.1559901,12.1908683 L76.5930395,21.3845541 C76.1986131,21.6979752 75.8275129,22.040153 75.4876912,22.4047556 C74.6519207,23.2938374 73.9770485,24.3264386 73.4993896,25.4558626 L64.051975,47.7905461 C62.5474289,51.3476646 64.2242715,55.4437724 67.798231,56.9414926 L74.4597438,59.7327344 L74.4594787,59.7332621 L107.197404,73.4507119 C110.771628,74.9481683 114.888985,73.2786996 116.393531,69.7213173 L125.848367,47.3692216 C126.516878,45.7881334 126.780624,44.0666918 126.615219,42.3592327 L125.196026,27.7110171 L129.126507,18.4186618 C130.144912,16.0096987 129.00908,13.2356053 126.589507,12.2219994 Z" id="Path" fill="#FBAF02"></path>
                    <path d="M107.110644,73.4536387 L74.5,59.8110245 L86.6239693,31.1934142 C87.2951615,29.6094068 88.3547579,28.2172016 89.7061196,27.1443167 L101.225435,18 L125.038498,27.9624275 L126.452174,42.5315168 C126.616935,44.2296608 126.354478,45.9419736 125.688303,47.5141737 L116.270226,69.7443275 C114.772321,73.2823025 110.670973,74.9431881 107.110644,73.4536387 Z" id="Path" fill="#FBAF02"></path>
                    <path d="M125.5,27.3344538 L114.088723,36.5723497 C113.717386,36.8736846 113.370291,37.1966552 113.049567,37.5420434 C112.239232,38.4025162 111.586063,39.3977555 111.118829,40.4837081 L98.8506009,69 L67.8194824,56.2159448 C64.2278524,54.73638 62.5427192,50.6889517 64.0547041,47.1743336 L73.5488289,25.1065044 C74.0288494,23.9905747 74.7070583,22.970311 75.5469611,22.091852 C75.888463,21.7313449 76.2613979,21.3932555 76.6577745,21.0838398 L88.2778949,12 L125.5,27.3344538 Z" id="Path" fill="#FFC542"></path>
                    <path d="M112.5,37.4865765 C111.694788,38.3490757 111.045749,39.3466588 110.581468,40.4351689 L104.796227,54 L67.5,38.5008818 L73.248978,25.0217519 C73.7259639,23.9031942 74.3998853,22.8805278 75.2344784,22 L112.5,37.4865765 Z" id="Path" fill="#FFDC8C"></path>
                    <path d="M126.452345,42.5559259 L125.030315,28 L113.671584,37.2914628 C113.301093,37.595323 112.955265,37.9183219 112.636754,38.2657031 C111.829735,39.1314032 111.179187,40.1326474 110.712426,41.2261771 L98.5,69.906752 L107.023159,73.4534481 C110.599979,74.9431233 114.720205,73.2825103 116.224448,69.7494473 L125.683781,47.5356676 C126.353423,45.9644561 126.617037,44.2548164 126.452345,42.5559259 Z" id="Path" fill="#FBAF02"></path>
                    <g id="Group" transform="translate(63.500000, 12.000000)">
                        <path d="M29.4440674,27.8543038 C29.54021,30.2394962 27.1616211,32.025406 24.8942139,31.1993033 C24.8423828,31.180468 24.7908203,31.1603062 24.7392578,31.138818 C24.6879639,31.1173298 24.637207,31.0950457 24.5875244,31.0714352 C22.4047119,30.0468981 22.0351807,27.1181333 23.8296631,25.5189853 L27.8139404,21.9683886 C28.3478271,21.4924643 29.2012939,21.8476832 29.2300293,22.557325 L29.4440674,27.8543038 Z" id="Path" fill="#080040"></path>
                        <path d="M32.8275879,3.33412279 L32.7053955,3.62806041 L20.9891602,12.8733006 C20.5890137,13.1889918 20.2135742,13.5322727 19.8690186,13.9002253 C19.023877,14.7926496 18.3401367,15.8333692 17.8564697,16.9674697 L5.74519043,45.6478762 L4.58046875,45.1645239 C0.961425781,43.6598179 -0.739868164,39.5409772 0.786328125,35.9630559 L10.3568115,13.5046829 C10.8404785,12.3705824 11.5242187,11.332781 12.3720459,10.4374385 C12.7166016,10.0694859 13.092041,9.72620494 13.4921875,9.41051381 L25.2057373,0.167926458 C25.2057373,0.165273591 25.2084229,0.165273591 25.2084229,0.165273591 L32.8275879,3.33412279 Z" id="Path" fill="#FBAF02"></path>
                    </g>
                    <path d="M83.5,25.2277892 C83.4196036,25.3076125 83.3448944,25.3903627 83.2699268,25.4728468 C82.4563981,26.3679323 81.7982335,27.4117553 81.3326583,28.5492377 L75.882249,42 L68.5,38.8025437 L74.1135287,25.0763909 C74.5791038,23.9389085 75.2372684,22.8980124 76.0533822,22 L83.5,25.2277892 Z" id="Path" fill="#FFC542"></path>
                    <path d="M125.231275,28 L88.5,12.3169979 L92.3984378,2.92676246 C93.4086668,0.493570039 96.1727985,-0.648654931 98.5723225,0.375748933 L126.613736,12.3489856 C129.01326,13.3733894 130.139679,16.1763055 129.12945,18.609498 L125.231275,28 Z" id="Path" fill="#FFDC8C"></path>
                    <path d="M101.5,1.59670017 L95.9266643,15 L88.5,11.9187372 L92.3799485,2.83281666 C93.3877613,0.477952834 96.1407918,-0.62738088 98.5304861,0.363163219 L101.5,1.59670017 Z" id="Path" fill="#FBAF02"></path>
                    <path d="M129.5,57 L109.897493,116.72682 C109.060925,119.273762 106.666491,121 103.962286,121 L34.3588795,121 C31.6655388,121 29.2764047,119.287419 28.4318871,116.753871 L8.5,57 L129.5,57 Z" id="Path" fill="#383071"></path>
                    <path d="M129.5,57 L109.763908,116.72682 C108.921639,119.273762 106.510888,121 103.788254,121 L45.5324325,121 C42.8207374,121 40.415322,119.287419 39.5650492,116.753871 L19.5,57 L129.5,57 Z" id="Path" fill="#59547D"></path>
                    <path d="M131.107637,55.8394414 C130.721099,55.3121673 130.102638,55 129.44473,55 L20.3979062,55 C19.2629146,55 18.3426369,55.9118432 18.3426369,57.0364324 C18.3426369,58.1610215 19.2629146,59.0728647 20.3979062,59.0728647 L126.615061,59.0728647 L119.206772,81.6404598 L107.057835,81.6404598 L110.379413,66.1776869 C110.615572,65.077494 109.90736,63.9959262 108.797255,63.7619319 C107.687415,63.527413 106.595313,64.2293959 106.359155,65.3295888 L102.855428,81.6404598 L89.0094306,81.6404598 L90.4128806,65.9329373 C90.5129569,64.8125453 89.6776645,63.8241031 88.5466442,63.7249441 C87.4188009,63.6252604 86.4183033,64.4534218 86.3182271,65.5740761 L84.8827421,81.6404598 L71.055013,81.6404598 L71.055013,65.7535067 C71.055013,64.6289175 70.1347352,63.7170743 68.9997437,63.7170743 C67.8647521,63.7170743 66.9444744,64.6289175 66.9444744,65.7535067 L66.9444744,81.6404598 L53.5745014,81.6404598 L52.1390163,65.5740761 C52.0389401,64.4536841 51.0387073,63.627359 49.9105992,63.7249441 C48.7798437,63.8241031 47.9445513,64.8125453 48.0443628,65.9329373 L49.4478129,81.6404598 L46.9334637,81.6404598 C45.7984721,81.6404598 44.8781944,82.5523031 44.8781944,83.6768922 C44.8781944,84.8014814 45.7984721,85.7133246 46.9334637,85.7133246 L49.811582,85.7133246 L51.1059543,100.200772 L39.5887153,100.200772 L36.4765563,85.7133246 L38.7126512,85.7133246 C39.8476427,85.7133246 40.7679205,84.8014814 40.7679205,83.6768922 C40.7679205,82.5523031 39.8476427,81.6404598 38.7126512,81.6404598 L35.6018159,81.6404598 L32.0980887,65.3295888 C31.8616652,64.2296582 30.771152,63.5263637 29.6599881,63.7619319 C28.5498832,63.9959262 27.841407,65.077494 28.0778305,66.1776869 L31.3994083,81.6404598 L18.9280034,81.6404598 L11.3989877,59.0728647 L12.1770937,59.0728647 C13.3120852,59.0728647 14.232363,58.1610215 14.232363,57.0364324 C14.232363,55.9118432 13.3120852,55 12.1770937,55 L8.55528711,55 C7.89552528,55 7.27600573,55.3140035 6.8894679,55.8436386 C6.50319482,56.373536 6.39676454,57.0547952 6.60380056,57.6754571 L26.5160588,117.362364 C27.6409898,120.734033 30.8047755,123 34.3887225,123 L41.9410363,123 C41.9426248,123 41.9439486,123 41.9458019,123 C41.9481846,123 41.9510969,123 41.9534797,123 L55.0192527,123 C55.0200469,123 55.021106,123 55.0219002,123 C55.0229592,123 55.0237535,123 55.0248125,123 L83.4321662,123 C83.4332252,123 83.4340195,123 83.4350785,123 C83.4358727,123 83.4369317,123 83.437726,123 L96.503499,123 C96.5058818,123 96.5087941,123 96.5111768,123 C96.5127653,123 96.5140891,123 96.5159424,123 L103.930056,123 C107.532271,123 110.701087,120.719343 111.815428,117.325114 L117.916636,98.7383072 C118.267697,97.6688064 117.677035,96.519821 116.597642,96.1719775 C115.517983,95.8243963 114.358899,96.409382 114.007574,97.4788828 L113.114036,100.201296 L103.070936,100.201296 L106.183095,85.7138492 L117.87004,85.7138492 L116.550781,89.7326749 C116.19972,90.8021758 116.790381,91.9511612 117.869775,92.2990047 C118.081047,92.366947 118.294967,92.3994753 118.505709,92.3994753 C119.371977,92.3994753 120.177353,91.8525268 120.459843,90.9923617 L131.399129,57.6668004 C131.602723,57.0461384 131.494439,56.3672402 131.107637,55.8394414 Z M84.5189729,85.7133246 L83.2246007,100.200772 L71.055013,100.200772 L71.055013,85.7133246 L84.5189729,85.7133246 Z M85.6780569,118.926611 L86.9869905,104.273636 L97.9932582,104.273636 L94.8453576,118.926611 L85.6780569,118.926611 Z M81.5516332,118.926611 L71.055013,118.926611 L71.055013,104.273636 L82.8605668,104.273636 L81.5516332,118.926611 Z M56.9056103,118.926611 L55.5966767,104.273636 L66.9450039,104.273636 L66.9450039,118.926611 L56.9056103,118.926611 Z M53.9382705,85.7133246 L66.9447391,85.7133246 L66.9447391,100.200772 L55.2329075,100.200772 L53.9382705,85.7133246 Z M51.4702529,104.273636 L52.7791865,118.926611 L43.6113563,118.926611 L40.4637205,104.273636 L51.4702529,104.273636 Z M32.2741487,85.7133246 L35.3863078,100.200772 L25.1200218,100.200772 L20.2869751,85.7133246 L32.2741487,85.7133246 Z M30.4187671,116.08379 L26.4787287,104.273374 L36.2613129,104.273374 L39.4092135,118.926348 L34.3889872,118.926348 C32.5815257,118.926611 30.9861305,117.784183 30.4187671,116.08379 Z M111.777303,104.273636 L107.906895,116.064902 C107.345091,117.776576 105.747313,118.926348 103.930585,118.926348 L99.0488242,118.926348 L102.196725,104.273374 L111.777303,104.273374 L111.777303,104.273636 Z M98.8685281,100.200772 L87.3512892,100.200772 L88.6456614,85.7133246 L101.980952,85.7133246 L98.8685281,100.200772 Z" id="Shape" fill="#080040"></path>
                    <path d="M136.5,56.5011511 C136.5,58.8390635 135.507359,60.9649268 133.907234,62.5032425 C132.307109,64.0441161 130.0995,65 127.671687,65 L9.3283125,65 C4.47295312,65 0.5,61.176976 0.5,56.5014068 C0.5,54.1634944 1.49264062,52.0376311 3.09276562,50.4967575 C4.69289063,48.9558839 6.9005,48 9.3283125,48 L127.671688,48 C132.362094,48 136.230391,51.5715833 136.486187,56.0274296 C136.494422,56.183461 136.5,56.342306 136.5,56.5011511 Z" id="Path" fill="#383071"></path>
                    <path d="M136.5,56 L18.3008402,56 C13.6161497,56 9.75521986,52.4406207 9.5,48 L127.696507,48 C132.380932,48 136.244515,51.5593793 136.5,56 Z" id="Path" fill="#080040"></path>
                    <path d="M74.5,11.8867408 L74.5,53.1103854 C74.5,54.638174 73.8995475,56.033509 72.9187553,57.082688 C71.8195227,58.2588344 70.2438673,59 68.5,59 C65.1996407,59 62.5,56.3498824 62.5,53.1106467 L62.5,11.8867408 C62.5,8.64985631 65.1999068,6 68.5,6 C70.1501797,6 71.651577,6.66252939 72.7369693,7.73051841 C72.7976534,7.79008335 72.8580712,7.8522608 72.9187553,7.91705074 C73.8995475,8.96361727 74.5,10.361826 74.5,11.8867408 Z" id="Path" fill="#080040"></path>
                    <path d="M74.5,11.9563164 L74.5,53.0410799 C74.5,54.5637215 73.9309258,55.9543556 73.0013874,57 C72.0693265,55.9543556 71.5,54.5637215 71.5,53.0410799 L71.5,11.9563164 C71.5,10.4362785 72.0690742,9.04304069 73.0013874,8 C73.9309258,9.04304069 74.5,10.4365389 74.5,11.9563164 Z" id="Path" fill="#383071"></path>
                    <circle id="Oval" fill="#59547D" cx="68.5" cy="54" r="2"></circle>
                </g>
            </g>
        </g>
    </g>
</svg>